<svg width="600" height="182" viewBox="0 0 600 182" fill="none" xmlns="http://www.w3.org/2000/svg">
<path d="M355.814 13.9535C321.132 13.9535 293.023 42.062 293.023 76.7442C293.023 111.426 321.132 139.535 355.814 139.535C390.496 139.535 418.605 111.426 418.605 76.7442C418.605 42.062 390.496 13.9535 355.814 13.9535ZM355.814 111.628C336.543 111.628 320.93 96.0155 320.93 76.7442C320.93 57.4729 336.543 41.8605 355.814 41.8605C375.085 41.8605 390.698 57.4729 390.698 76.7442C390.698 96.0155 375.085 111.628 355.814 111.628Z" fill="#8D45BA"/>
<path d="M279.07 69.7674V125.581C279.07 133.287 272.822 139.535 265.116 139.535C257.411 139.535 251.163 133.287 251.163 125.581V69.7674C251.163 54.3566 238.667 41.8605 223.256 41.8605C221.721 41.8605 220.217 41.9845 218.744 42.2326C208.574 43.876 200.233 51.0388 196.915 60.5426C195.907 63.4264 195.349 66.5271 195.349 69.7674V83.7209C195.349 91.4264 189.101 97.6744 181.395 97.6744C178.512 97.6744 175.829 96.7907 173.612 95.3023C173.612 95.2868 173.597 95.2868 173.597 95.2868C169.876 92.7907 167.442 88.5426 167.442 83.7209V69.7674C167.442 66.0775 167.798 62.4651 168.481 58.9767C170.868 46.8062 177.209 36.0465 186.109 28.1085C195.985 19.3023 208.992 13.9535 223.256 13.9535C233.426 13.9535 242.946 16.6667 251.163 21.4264C267.845 31.0698 279.07 49.1163 279.07 69.7674Z" fill="#8D45BA"/>
<path d="M460.465 13.9535C460.465 21.6589 454.217 32.5581 446.512 32.5581C438.806 32.5581 432.558 21.6589 432.558 13.9535C432.558 6.24806 438.806 0 446.512 0C454.217 0 460.465 6.24806 460.465 13.9535Z" fill="#8D45BA"/>
<path d="M599.612 69.7674C596.14 38.3721 569.535 13.9535 537.209 13.9535C502.527 13.9535 474.419 42.062 474.419 76.7442C474.419 111.426 502.527 139.535 537.209 139.535C550.109 139.535 562.124 135.643 572.093 128.961C572.217 128.884 572.341 128.806 572.45 128.729C573.876 134.915 579.426 139.535 586.047 139.535C593.752 139.535 600 133.287 600 125.581V76.7442C600 74.3876 599.876 72.062 599.612 69.7674ZM537.209 111.628C517.938 111.628 502.326 96.0155 502.326 76.7442C502.326 57.4729 517.938 41.8605 537.209 41.8605C556.481 41.8605 572.093 57.4729 572.093 76.7442C572.093 96.0155 556.481 111.628 537.209 111.628Z" fill="#8D45BA"/>
<path d="M460.465 55.814V125.581C460.465 133.287 454.217 139.535 446.512 139.535C438.806 139.535 432.558 133.287 432.558 125.581V55.814C432.558 48.1085 438.806 41.8605 446.512 41.8605C454.217 41.8605 460.465 48.1085 460.465 55.814Z" fill="#8D45BA"/>
<path d="M237.209 69.7674V83.7209C237.209 87.4109 236.853 91.0233 236.17 94.5116C233.783 106.682 227.442 117.442 218.543 125.38C212 131.209 204.093 135.535 195.349 137.783V167.442C195.349 175.147 189.101 181.395 181.395 181.395C173.69 181.395 167.442 175.147 167.442 167.442V137.783C162.496 136.496 157.814 134.574 153.488 132.062C136.806 122.419 125.581 104.372 125.581 83.7209V41.8605C125.581 34.155 131.829 27.907 139.535 27.907C145.194 27.907 150.062 31.2713 152.248 36.1085C153.039 37.8605 153.488 39.814 153.488 41.8605V83.7209C153.488 99.1318 165.984 111.628 181.395 111.628C182.93 111.628 184.434 111.504 185.907 111.256C196.077 109.612 204.419 102.45 207.736 92.9457C208.744 90.062 209.302 86.9612 209.302 83.7209V69.7674C209.302 62.062 215.55 55.814 223.256 55.814C226.139 55.814 228.822 56.6977 231.039 58.1861C231.039 58.2016 231.054 58.2016 231.054 58.2016C234.775 60.6977 237.209 64.9457 237.209 69.7674Z" fill="#8D45BA"/>
<path d="M110.946 111.628C110.946 115.225 109.581 118.512 107.349 120.992C107.302 121.039 107.256 121.101 107.194 121.147C106.868 121.473 106.527 121.798 106.186 122.124L106.109 122.202C94.8527 132.946 79.5814 139.535 62.7907 139.535C28.1085 139.535 0 111.426 0 76.7442C0 42.062 28.1085 13.9535 62.7907 13.9535C79.5814 13.9535 94.8527 20.5426 106.109 31.2868L106.186 31.3643C106.527 31.6899 106.868 32.0155 107.194 32.3411C107.256 32.3876 107.302 32.4496 107.349 32.4961C109.581 34.9767 110.946 38.2636 110.946 41.8605C110.946 49.5814 104.698 55.8295 96.9767 55.8295C93.3643 55.8295 90.062 54.4496 87.5814 52.2015C87.4109 52.0465 87.2558 51.8915 87.1008 51.7364C80.8217 45.6279 72.2636 41.8605 62.7907 41.8605C43.5194 41.8605 27.907 57.4729 27.907 76.7442C27.907 96.0155 43.5194 111.628 62.7907 111.628C72.2636 111.628 80.8217 107.86 87.1008 101.752C87.2558 101.597 87.4109 101.442 87.5814 101.287C90.062 99.0388 93.3643 97.6589 96.9767 97.6589C104.698 97.6589 110.946 103.907 110.946 111.628Z" fill="#8D45BA"/>
</svg>
